<svg xmlns="http://www.w3.org/2000/svg" width="32" height="32" viewBox="0 0 32 32">
  <rect width="32" height="32" rx="8" fill="#3b82f6"/>
  <g transform="translate(6, 6) scale(0.833)">
    <path d="M4.5 16.5c-1.5 1.26-2 5-2 5s3.74-.5 5-2c.71-.84.7-2.13-.09-2.91a2.18 2.18 0 0 0-2.91-.09z" fill="white"/>
    <path d="m12 15-3-3a22 22 0 0 1 2-3.95A12.88 12.88 0 0 1 22 2c0 2.72-.78 7.5-3.05 11a22.3 22.3 0 0 1-3.95 2z" fill="white"/>
    <path d="M9 12H4s.5-1 1.3-2.1c.3-.4.7-.9 1.2-1.4L9 12z" fill="white"/>
    <path d="M12 15v5s1-.5 2.1-1.3c.4-.3.9-.7 1.4-1.2L12 15z" fill="white"/>
  </g>
</svg>